# xmcd
#
# Track frame offsets: 
#        150
#        9519
#        20063
#        33101
#        43478
#        52822
#        59223
#        73534
#        84064
#        96896
#        105098
#        115797
#        128260
#        144579
#        156030
#
# Disc length: 2161 seconds
#
# Revision: 0
# Processed by: cddbd v1.5.2PL0 Copyright (c) Steve Scherf et al.
# Submitted via: ExactAudioCopyFreeDBPlugin 1.0
#
DISCID=b6086f0f
DTITLE=Johnny Cash - The Children's Album
DYEAR=1975
DGENRE=Country
TTITLE0=Nasty Dan
TTITLE1=One and One Makes Two
TTITLE2=I Got a Boy and His Name Is John
TTITLE3=Little Magic Glasses
TTITLE4=Miss Tara
TTITLE5=Dinosaur Song
TTITLE6=Tiger Whitehead
TTITLE7=There's a Bear in the Woods
TTITLE8=Call of the Wild
TTITLE9=Little Green Fountain
TTITLE10=Old Shep
TTITLE11=(The) Timber Man
TTITLE12=Grandfather's Clock
TTITLE13=Ah Bos Cee Dah
TTITLE14=Why is a Fire Engine Red
EXTD=
EXTT0=
EXTT1=
EXTT2=
EXTT3=
EXTT4=
EXTT5=
EXTT6=
EXTT7=
EXTT8=
EXTT9=
EXTT10=
EXTT11=
EXTT12=
EXTT13=
EXTT14=
PLAYORDER=
